<?xml version="1.0" standalone="no"?>
<!DOCTYPE svg PUBLIC "-//W3C//DTD SVG 20010904//EN"
 "http://www.w3.org/TR/2001/REC-SVG-20010904/DTD/svg10.dtd">
<svg version="1.0" xmlns="http://www.w3.org/2000/svg"
 width="441.000000pt" height="433.000000pt" viewBox="0 0 441.000000 433.000000"
 preserveAspectRatio="xMidYMid meet">

<g transform="translate(0.000000,433.000000) scale(0.100000,-0.100000)"
fill="#000000" stroke="none">
<path d="M0 2165 l0 -2165 2205 0 2205 0 0 2165 0 2165 -2205 0 -2205 0 0
-2165z m4120 90 l0 -1825 -100 0 -100 0 15 36 c18 43 19 64 5 64 -6 0 -19 -19
-29 -43 -13 -28 -21 -37 -25 -27 -3 8 -10 27 -15 43 -6 15 -17 27 -26 27 -19
0 -19 -2 0 -47 20 -48 19 -53 -10 -53 -23 0 -24 3 -27 72 -2 46 -7 73 -15 76
-10 3 -13 -16 -13 -72 0 -61 -3 -76 -15 -76 -12 0 -15 14 -16 60 -2 81 -2 83
-17 88 -9 3 -12 -16 -12 -72 0 -87 -20 -105 -36 -34 -11 50 -32 66 -70 53 -44
-16 -44 -38 0 -30 44 9 50 -10 6 -20 -17 -4 -36 -15 -43 -26 -19 -30 -26 -23
-29 28 -2 27 -7 48 -13 48 -5 0 -11 -21 -13 -48 -2 -32 -8 -47 -17 -47 -8 0
-17 5 -20 10 -4 7 -12 7 -25 0 -40 -22 -68 -1 -55 41 7 22 27 24 55 7 27 -17
37 -2 15 22 -39 43 -111 7 -103 -51 3 -20 0 -29 -9 -29 -8 0 -13 12 -13 30 0
37 -31 70 -65 70 -37 0 -68 -35 -63 -71 3 -19 0 -29 -8 -29 -7 0 -14 12 -16
28 -2 22 -11 29 -45 40 -47 15 -59 42 -19 42 14 0 28 -5 31 -10 8 -13 35 -13
35 -1 0 20 -33 41 -64 41 -37 0 -56 -15 -56 -46 0 -25 13 -38 54 -51 17 -5 32
-15 34 -21 6 -19 -27 -26 -55 -11 -21 11 -27 11 -30 2 -3 -8 -21 -13 -43 -13
l-39 0 -3 -92 -3 -93 -1367 -3 -1368 -2 0 1920 0 1920 1930 0 1930 0 0 -1825z
m-805 -1774 c9 -28 -5 -51 -30 -51 -25 0 -39 23 -30 51 8 25 52 25 60 0z m335
-36 c0 -10 -10 -15 -26 -15 -22 0 -25 2 -14 15 7 8 19 15 26 15 8 0 14 -7 14
-15z m230 -201 c0 -75 -2 -84 -19 -84 -10 0 -32 -3 -49 -6 -22 -5 -35 -1 -51
15 -46 46 -10 129 50 117 27 -5 29 -3 29 23 0 24 3 28 20 24 18 -5 20 -14 20
-89z m288 4 l3 -85 -43 -6 c-60 -8 -88 11 -88 62 0 47 27 76 65 69 21 -4 25
-1 25 17 0 25 9 37 24 32 6 -2 12 -40 14 -89z m-878 67 c0 -10 -11 -15 -35
-15 -28 0 -35 -4 -35 -19 0 -14 8 -21 28 -23 16 -2 27 -9 27 -18 0 -9 -11 -16
-27 -18 -24 -3 -28 -8 -28 -33 0 -22 -5 -29 -20 -29 -18 0 -20 7 -20 85 l0 85
55 0 c42 0 55 -3 55 -15z m117 -47 c31 -29 30 -71 -3 -97 -33 -26 -55 -26 -83
-3 -31 24 -31 79 -1 104 30 24 59 23 87 -4z m78 3 c3 -10 5 -23 4 -27 -6 -32
3 -54 20 -54 17 0 20 8 23 48 2 34 7 47 18 47 11 0 16 -15 18 -61 l3 -61 -43
-6 c-64 -9 -78 4 -78 67 0 29 3 56 7 59 11 12 21 8 28 -12z m225 -1 c5 -8 10
-36 10 -62 0 -41 -3 -48 -20 -48 -17 0 -20 7 -20 46 0 41 -2 45 -22 42 -20 -3
-23 -10 -26 -50 -3 -49 -9 -57 -30 -36 -15 15 -16 100 -1 115 16 16 98 11 109
-7z m288 4 c12 -8 22 -26 22 -40 0 -22 -4 -24 -47 -24 -43 0 -46 -1 -32 -16
13 -12 20 -13 42 -3 15 7 30 9 35 5 10 -11 -36 -46 -60 -46 -25 0 -68 44 -68
70 0 26 43 70 67 70 10 0 29 -7 41 -16z"/>
<path d="M2337 3574 c-138 -33 -249 -121 -310 -243 -32 -65 -32 -67 -37 -251
l-5 -185 -125 -5 c-103 -5 -133 -10 -168 -28 -161 -85 -237 -316 -159 -486 32
-69 126 -169 215 -227 40 -26 150 -86 245 -132 94 -47 197 -103 228 -126 63
-45 114 -113 130 -175 16 -60 8 -174 -17 -220 -36 -69 -42 -57 -46 88 -3 131
-4 135 -33 178 -40 55 -111 109 -197 147 l-68 30 0 -530 0 -529 150 0 150 0 0
194 0 195 56 25 c72 33 165 128 204 210 106 224 29 477 -192 627 -31 21 -161
90 -290 152 -128 62 -250 128 -270 146 -42 37 -57 85 -39 129 18 43 48 55 144
60 l87 4 0 -113 0 -114 143 -68 c78 -37 145 -67 150 -67 4 0 7 81 7 180 l0
180 220 0 220 0 0 135 0 135 -217 2 -218 3 -3 145 c-2 134 -1 148 20 190 38
74 66 84 253 90 l160 5 3 133 3 132 -168 -1 c-107 0 -189 -6 -226 -15z"/>
<path d="M3520 560 c0 -13 5 -20 13 -17 6 2 12 10 12 17 0 7 -6 15 -12 18 -8
2 -13 -5 -13 -18z"/>
<path d="M3791 250 c-7 -4 -11 -18 -9 -31 4 -28 42 -39 51 -15 13 32 -16 63
-42 46z"/>
<path d="M4085 244 c-17 -18 -18 -24 -6 -42 14 -23 46 -10 49 19 4 32 -21 45
-43 23z"/>
<path d="M3345 244 c-17 -18 -18 -24 -6 -42 14 -23 46 -10 49 19 4 32 -21 45
-43 23z"/>
<path d="M3942 253 c-18 -7 -4 -23 19 -23 12 0 19 5 17 12 -5 14 -18 18 -36
11z"/>
</g>
</svg>
